<?xml version="1.0" encoding="UTF-8" standalone="no"?>
<!-- Created with Inkscape (http://www.inkscape.org/) -->
<svg
   xmlns:dc="http://purl.org/dc/elements/1.1/"
   xmlns:cc="http://web.resource.org/cc/"
   xmlns:rdf="http://www.w3.org/1999/02/22-rdf-syntax-ns#"
   xmlns:svg="http://www.w3.org/2000/svg"
   xmlns="http://www.w3.org/2000/svg"
   xmlns:sodipodi="http://sodipodi.sourceforge.net/DTD/sodipodi-0.dtd"
   xmlns:inkscape="http://www.inkscape.org/namespaces/inkscape"
   id="svg2"
   sodipodi:version="0.32"
   inkscape:version="0.45.1"
   width="482"
   height="686"
   version="1.0"
   sodipodi:docbase="C:\Documents and Settings\Flanker\Desktop"
   sodipodi:docname="Achille.svg"
   inkscape:output_extension="org.inkscape.output.svg.inkscape">
  <metadata
     id="metadata7">
    <rdf:RDF>
      <cc:Work
         rdf:about="">
        <dc:format>image/svg+xml</dc:format>
        <dc:type
           rdf:resource="http://purl.org/dc/dcmitype/StillImage" />
      </cc:Work>
    </rdf:RDF>
  </metadata>
  <defs
     id="defs5" />
  <sodipodi:namedview
     inkscape:window-height="1003"
     inkscape:window-width="1280"
     inkscape:pageshadow="2"
     inkscape:pageopacity="0.0"
     guidetolerance="10.0"
     gridtolerance="10.0"
     objecttolerance="10.0"
     borderopacity="1.0"
     bordercolor="#666666"
     pagecolor="#ffffff"
     id="base"
     inkscape:zoom="0.777199"
     inkscape:cx="320.79143"
     inkscape:cy="477.31564"
     inkscape:window-x="-4"
     inkscape:window-y="-4"
     inkscape:current-layer="svg2" />
  <path
     style="fill:#000000"
     d="M 11.108898,685.41823 C 11.108898,685.09826 15.266768,680.34147 20.348598,674.84758 L 29.588308,664.8587 L 32.685188,649.93866 C 34.689668,640.28157 36.457018,634.22257 37.695488,632.76189 C 38.747868,631.52068 41.858898,628.0095 44.608898,624.95926 C 47.719858,621.50865 50.028668,617.82405 50.719968,615.20668 C 51.331058,612.89301 51.501068,611 51.097778,611 C 49.950028,611 49.048028,603.55437 49.762808,599.98044 C 50.207658,597.75619 51.446768,596.14319 53.758268,594.77937 C 55.601118,593.69206 57.108898,592.05136 57.108898,591.13336 C 57.108898,590.21536 58.253358,587.78005 59.652138,585.72155 C 62.208558,581.95945 71.320798,576.65656 82.335818,572.52074 C 86.391788,570.99784 89.494958,568.03161 104.19834,551.62296 C 113.62292,541.10533 121.76823,531.375 122.29903,530 C 125.74979,521.06098 133.72903,486.34386 134.48033,477 C 135.72489,461.52148 139.02875,452.5032 151.37679,430.87908 C 154.95058,424.62058 158.17533,418.51052 158.5429,417.30115 C 158.91047,416.09179 160.13427,414.80933 161.26247,414.45126 C 164.35139,413.47087 170.1089,400.16396 170.1089,394.00515 C 170.1089,385.06658 177.85244,356.30256 184.1965,341.6756 C 186.34832,336.71433 188.1089,332.55728 188.1089,332.43771 C 188.1089,332.31814 184.6214,333.71862 180.3589,335.54988 C 167.75838,340.96335 158.26465,343 145.63066,343 C 128.26969,343 118.2755,339.57467 107.85878,330.05438 C 99.450253,322.36946 94.701848,310.91846 93.169208,294.62983 C 92.377018,286.2105 92.532078,282.72339 94.108808,273.50052 C 95.147418,267.42531 96.358831,261.69872 96.660038,260.72734 C 97.796977,257.06077 98.212158,254.48243 99.312053,250.5 C 107.70056,220.12741 142.05131,174.3818 175.58977,149.31941 C 205.00719,127.33656 234.93565,117.26819 258.48989,121.43059 C 263.37443,122.29377 269.33693,123 271.73989,123 C 275.39795,123 276.1089,122.68415 276.1089,121.05902 C 276.1089,119.99148 276.59536,118.81738 277.18993,118.44992 C 277.78449,118.08246 278.00601,116.72621 277.6822,115.43602 C 276.87252,112.21 282.36848,101.64655 287.44607,96.669493 C 293.1658,91.063011 300.39592,87.679646 307.6964,87.193262 C 313.63294,86.797749 313.81571,86.699698 315.06706,83.239157 C 316.26404,79.928972 316.19099,79.568168 313.97956,77.867541 C 312.6757,76.864846 310.98702,76.034454 310.22693,76.022224 C 307.90185,75.984813 302.46889,79.83924 299.66486,83.515511 C 298.2031,85.431974 296.41233,86.999988 295.68537,86.999988 C 294.95841,86.999988 292.50631,84.985042 290.23626,82.522331 C 287.05619,79.072359 286.1089,77.249792 286.1089,74.581348 C 286.1089,72.676519 286.5589,70.839907 287.1089,70.499988 C 287.6589,70.160069 288.1089,68.635662 288.1089,67.112416 C 288.1089,64.294188 293.5525,54.999988 295.20314,54.999988 C 295.70131,54.999988 296.1089,54.379496 296.1089,53.621116 C 296.1089,51.910973 309.65859,38.999988 311.45333,38.999988 C 312.17215,38.999988 313.82732,37.864164 315.1315,36.475935 C 318.44223,32.951821 328.82405,27.324895 333.6089,26.461217 C 335.8089,26.064112 338.15892,25.303138 338.83117,24.770163 C 341.09703,22.973744 352.30353,23.356645 356.6089,25.377589 C 361.61341,27.726709 363.42337,29.275106 368.25395,35.339786 C 372.03843,40.091114 373.48639,46.030616 371.20408,47.441162 C 370.70643,47.748727 370.53941,49.790787 370.83292,51.979074 C 371.206,54.760604 370.85688,56.735675 369.67264,58.543051 C 368.67591,60.064259 367.84711,63.67433 367.65898,67.314155 C 367.3034,74.193787 364.79841,81.403629 362.10932,83.287137 C 360.32007,84.540381 359.68624,87.732446 358.49294,101.49999 C 358.15924,105.35 357.586,108.95 357.21908,109.5 C 356.38755,110.74642 356.51551,116.47045 357.57079,125.23321 C 358.12698,129.8517 358.02954,132.3907 357.26054,133.31728 C 356.42511,134.32392 356.5016,135.66598 357.56071,138.58407 C 358.34241,140.73783 359.23019,143.68203 359.53356,145.12673 C 359.83692,146.57144 361.87957,149.92499 364.07278,152.57908 C 367.07913,156.21718 369.616,158.03163 374.38168,159.95234 C 377.85837,161.35355 383.75459,164.44177 387.48438,166.81503 C 393.38897,170.57212 395.12848,171.18014 400.93736,171.51729 C 404.60671,171.73026 410.0839,172.65292 413.1089,173.56764 C 421.72734,176.17374 425.53957,176.42648 427.4478,174.51824 C 429.49546,172.47059 429.59519,168.13929 427.65835,165.37407 C 426.36253,163.52402 426.09494,161.2123 426.0906,151.83026 C 426.08983,150.16982 427.03818,148.41419 428.59913,147.18634 C 429.9795,146.10054 431.1089,144.48942 431.1089,143.60608 C 431.1089,142.51469 432.0039,142 433.90171,142 L 436.69453,142 L 447.36941,97.749983 C 453.2406,73.412488 458.34214,51.699988 458.70616,49.499988 C 459.3795,45.43062 468.68042,8.7385517 469.7328,5.9999877 C 472.44223,-1.0506839 469.91015,34.394152 467.13588,42.352425 C 466.57104,43.97273 466.1089,46.791017 466.1089,48.615284 C 466.1089,50.439552 465.44801,53.409901 464.64026,55.216061 C 463.83251,57.022221 460.89922,69.074988 458.12184,81.999988 C 455.34446,94.924988 450.85497,114.27089 448.14519,124.99086 C 443.82462,142.08318 443.41006,144.58903 444.77645,145.3537 C 448.05827,147.19031 449.95435,149.87498 449.41806,151.92579 C 449.11395,153.08868 449.35496,154 449.96659,154 C 452.43293,154 454.13473,160.01308 454.27534,169.22437 C 454.42243,178.86056 453.80277,182.43571 451.53608,185.0285 C 450.80114,185.86918 450.26934,187.47978 450.3543,188.60762 C 450.43925,189.73546 449.18129,192.79554 447.55883,195.4078 C 444.34112,200.58851 436.62931,205.46934 432.1089,205.18611 L 429.6089,205.02948 L 397.21895,342.76474 C 359.42465,503.4815 342.73802,575.96245 343.38338,576.60781 C 343.77398,576.99841 352.37499,579.38569 370.3589,584.09509 L 374.1089,585.07709 L 374.1089,593.47116 C 374.1089,602.60043 373.75552,602.07513 380.8589,603.5048 L 384.1089,604.15891 L 384.23144,614.32946 C 384.29883,619.92325 384.63633,629.18351 384.98144,634.90781 L 385.6089,645.31561 L 393.1089,648.43876 L 400.6089,651.56191 L 400.88251,668.78095 L 401.15613,686 L 206.13251,686 C 98.869533,686 11.108898,685.73821 11.108898,685.41823 z M 334.39865,549.75 C 337.47054,537.5125 342.93857,515.575 346.54982,501 C 350.16106,486.425 354.00161,471.125 355.08437,467 C 368.04175,417.63608 420.15714,205.66184 419.48985,205.03704 C 419.00533,204.58336 412.72248,203.70443 405.52797,203.08385 C 398.33345,202.46328 389.33345,201.04987 385.52797,199.94295 C 381.72248,198.83602 375.0089,197.67426 370.6089,197.36125 L 362.6089,196.79213 L 356.3589,203.01812 C 350.81234,208.54337 349.56401,210.54901 349.99048,213.25 C 350.05561,213.6625 349.6589,214 349.1089,214 C 348.5589,214 348.1089,214.675 348.1089,215.5 C 348.1089,216.325 347.3214,217.80227 346.3589,218.78282 C 345.3964,219.76337 342.68527,223.1338 340.33416,226.27268 C 337.98306,229.41155 333.44609,234.79678 330.25201,238.23986 C 324.74255,244.17883 324.43265,244.78683 324.21162,250.09088 C 324.08348,253.16586 323.84138,256.54086 323.67363,257.59088 C 323.50587,258.6409 323.80921,260.34954 324.34772,261.38786 C 324.88623,262.42618 325.54088,264.63391 325.8025,266.29393 C 326.06413,267.95394 326.88325,269.91721 327.62278,270.65674 C 328.36231,271.39627 329.45847,274.36687 330.05868,277.25808 C 331.23621,282.93023 331.60608,304.91159 330.59278,309 C 330.25199,310.375 329.74187,313.075 329.45919,315 C 329.1765,316.925 328.30705,320.42823 327.52706,322.78495 C 326.74707,325.14167 326.1089,328.75587 326.1089,330.81652 C 326.1089,332.87716 324.77933,341.97393 323.1543,351.03157 C 319.36589,372.14749 319.19065,372.97874 318.09647,375.02322 C 317.59201,375.96582 317.38317,376.94093 317.63238,377.19014 C 317.88159,377.43936 317.2208,380.08602 316.16396,383.07163 C 314.61118,387.4583 314.28548,390.8028 314.46671,400.5 C 314.69466,412.69663 314.83491,413.6483 317.65641,422.14303 C 319.70219,428.3023 320.29571,433.22394 320.41281,445 C 320.51809,455.58588 320.14926,458.05933 317.28116,466.00143 C 315.71874,470.32793 313.19275,479.52653 312.61324,483 C 312.52646,483.52013 308.50198,494.37667 307.42349,497 C 307.08432,497.825 306.68699,499.08033 306.54053,499.78962 C 305.93985,502.69864 302.55197,509.99277 301.79988,509.99625 C 301.35492,509.99831 301.26898,510.45 301.6089,511 C 301.94882,511.55 301.75038,512 301.16792,512 C 300.58546,512 300.1884,512.3375 300.28556,512.75 C 300.63261,514.2234 298.09846,521.55683 296.14277,524.73862 C 295.04793,526.51985 293.95437,529.06788 293.71265,530.4009 C 293.47093,531.73392 292.75524,533.7923 292.12224,534.97507 C 291.48925,536.15784 291.09821,538.33508 291.25327,539.81338 C 291.40834,541.29168 291.2503,542.9622 290.90207,543.52563 C 290.55385,544.08907 290.4348,547.0138 290.63752,550.02503 C 290.88262,553.66566 290.52077,556.24205 289.5575,557.71482 C 287.7845,560.42562 287.74975,561.00025 289.3589,560.99913 C 290.0464,560.99866 295.5589,562.55331 301.6089,564.45392 C 321.08447,570.57219 325.5773,571.88656 327.21114,571.94383 C 328.4748,571.98813 329.99364,567.29821 334.39865,549.75 z M 254.50032,546.97976 C 255.38504,544.76863 256.1089,542.35643 256.1089,541.61931 C 256.1089,540.88219 257.17247,538.71183 258.4724,536.79629 C 259.77232,534.88074 261.08528,532.00545 261.39009,530.40674 C 261.69489,528.80803 262.43518,525.7 263.03517,523.5 C 263.63516,521.3 264.39636,517.7 264.72673,515.5 C 265.05709,513.3 265.75405,510.97278 266.27553,510.3284 C 267.38022,508.96334 267.62441,470.06687 266.59778,459 C 265.86968,451.1513 266.79981,445.91945 272.17565,427.62521 C 274.47349,419.80555 274.47678,419.71453 272.6452,414.62521 C 271.63073,411.80634 270.66054,408.375 270.48922,407 C 270.07355,403.66388 268.5342,395.6567 267.1249,389.5 C 266.39241,386.3 266.22114,380.72001 266.64915,374 C 267.37069,362.67144 265.17364,345.32017 262.82209,343.77575 C 262.15484,343.33752 260.28814,343.0962 258.67387,343.23948 C 256.10956,343.46709 254.84189,344.928 248.63755,354.80563 C 244.73184,361.02373 237.54635,371.59873 232.6698,378.30563 C 227.79325,385.01253 221.11674,395.45 217.83312,401.5 C 210.69716,414.64783 202.90258,427.8038 198.54926,434.04796 C 195.58038,438.30637 195.37034,439.18331 195.25026,447.8217 C 195.00921,465.16394 191.05606,476.71714 182.22969,485.87468 C 179.47495,488.73278 176.91147,492.0467 176.53306,493.23895 C 176.15465,494.4312 172.46226,501.27768 168.32774,508.45334 C 159.27714,524.16111 158.92652,525.5982 163.95745,526.36599 C 172.88563,527.72857 175.1089,528.27553 175.1089,529.10941 C 175.1089,529.59923 176.43234,530 178.04988,530 C 179.66742,530 181.23825,530.40028 181.54061,530.88951 C 181.84298,531.37874 183.55703,532.01981 185.34963,532.3141 C 191.48329,533.32106 197.61714,534.91635 211.1089,539.01356 C 241.45195,548.22822 244.73221,549.21452 247.6089,549.98831 C 252.51284,551.30741 252.8229,551.17205 254.50032,546.97976 z M 342.62224,144.19952 C 341.23897,142.10926 338.79697,136.65544 337.19557,132.07993 L 334.28394,123.76083 L 332.76236,126.70325 C 331.92549,128.32158 330.5361,130.23049 329.67484,130.94528 C 328.74173,131.71969 328.1089,133.82644 328.1089,136.15842 C 328.1089,140.06911 328.11484,140.07482 336.306,144.03597 C 340.81441,146.21619 344.64579,148 344.82019,148 C 344.99459,148 344.00551,146.28978 342.62224,144.19952 z M 335.66753,85.939682 L 336.36687,76.999988 L 333.85452,76.999988 C 332.32981,76.999988 331.13439,77.687941 330.81363,78.749988 C 330.52294,79.712488 329.38296,82.966414 328.28034,85.980935 L 326.27557,91.461882 L 329.94224,95.480935 C 333.50989,99.39146 333.62725,99.4376 334.28854,97.189683 C 334.66235,95.919013 335.28289,90.856514 335.66753,85.939682 z "
     id="path2165"
     sodipodi:nodetypes="ccccssssssssssssssssssssssssssssssssssssssssssssssssssssssssssssssssssssssscccsssssssssssssscccscccccccccccccccssssscccsssssssssssssssssssssssssssssssssssssssssccssssssssssssssssssssssssssssscccccssssccccscccsc" />
</svg>
